<?xml version="1.0" encoding="iso-8859-1"?>
<!-- Generator: Adobe Illustrator 19.0.0, SVG Export Plug-In . SVG Version: 6.00 Build 0)  -->
<svg version="1.1" id="Capa_1" xmlns="http://www.w3.org/2000/svg" xmlns:xlink="http://www.w3.org/1999/xlink" x="0px" y="0px"
	 viewBox="0 0 512 512" style="enable-background:new 0 0 512 512;" xml:space="preserve">
<g>
	<g>
		<g>
			<path d="M432,0.033h-16v32h16c26.51,0,48,21.49,48,48v377.44l-68.64-68.64c-2.993-3.054-7.084-4.782-11.36-4.8H80
				c-26.51,0-48-21.49-48-48v-48H0v48c0,44.183,35.817,80,80,80h313.44l91.36,91.36c6.31,6.186,16.441,6.084,22.626-0.226
				c2.916-2.974,4.557-6.969,4.574-11.134v-416C512,35.85,476.183,0.033,432,0.033z"/>
			<path d="M48,256.033h233.44l75.36,75.36c6.31,6.186,16.441,6.084,22.626-0.226c2.916-2.974,4.557-6.969,4.574-11.134v-272
				c0-26.51-21.49-48-48-48H48c-26.51,0-48,21.49-48,48v160C0,234.543,21.49,256.033,48,256.033z M32,48.033c0-8.837,7.163-16,16-16
				h288c8.837,0,16,7.163,16,16v233.44l-52.64-52.64c-2.993-3.054-7.084-4.782-11.36-4.8H48c-8.837,0-16-7.163-16-16V48.033z"/>
			<rect x="176" y="112.033" width="32" height="32"/>
			<rect x="240" y="112.033" width="32" height="32"/>
			<rect x="112" y="112.033" width="32" height="32"/>
		</g>
	</g>
</g>
<g>
</g>
<g>
</g>
<g>
</g>
<g>
</g>
<g>
</g>
<g>
</g>
<g>
</g>
<g>
</g>
<g>
</g>
<g>
</g>
<g>
</g>
<g>
</g>
<g>
</g>
<g>
</g>
<g>
</g>
</svg>
